<svg width="30" height="30" viewBox="0 0 30 30" fill="none" xmlns="http://www.w3.org/2000/svg">
<ellipse cx="14.7521" cy="14.8362" rx="14.38" ry="14.382" fill="white" fill-opacity="0.28"/>
<path d="M11.7358 11.0823C12.6343 10.6917 13.5653 10.5029 14.5288 10.5159C15.6095 10.5159 16.4494 10.8479 17.0483 11.512C17.5822 12.0849 17.8556 12.801 17.8687 13.6604V18.1917C17.8687 18.387 17.7905 18.5563 17.6343 18.6995C17.491 18.8427 17.3153 18.9143 17.1069 18.9143C16.9116 18.9143 16.7424 18.8427 16.5991 18.6995C16.4559 18.5563 16.3843 18.387 16.3843 18.1917V17.7815C16.0978 18.081 15.7137 18.3609 15.2319 18.6214C14.7502 18.8688 14.1382 18.9925 13.396 18.9925C12.6538 18.9925 12.0353 18.7776 11.5405 18.3479C11.0327 17.9052 10.7788 17.3258 10.7788 16.6096C10.7788 15.8154 11.0783 15.1904 11.6772 14.7346C12.3283 14.2398 13.2528 13.999 14.4507 14.012H16.3843V13.8753C16.3843 13.1591 16.2085 12.6513 15.8569 12.3518C15.5184 12.0523 14.9845 11.9026 14.2554 11.9026C13.6434 11.9026 12.9338 12.0263 12.1265 12.2737C12.0483 12.2997 11.9507 12.3128 11.8335 12.3128C11.7293 12.3128 11.6187 12.2607 11.5015 12.1565C11.3843 12.0393 11.3192 11.8635 11.3062 11.6292C11.3062 11.3818 11.4494 11.1995 11.7358 11.0823ZM12.2437 16.4339C12.2437 17.2932 12.8101 17.7164 13.9429 17.7034C14.4377 17.7034 14.8999 17.5862 15.3296 17.3518C15.7723 17.1044 16.1239 16.831 16.3843 16.5315V15.1839H14.6655C13.9103 15.1839 13.3179 15.2815 12.8882 15.4768C12.4585 15.6591 12.2437 15.9781 12.2437 16.4339Z" fill="white"/>
</svg>
