<svg width="30" height="30" viewBox="0 0 30 30" fill="none" xmlns="http://www.w3.org/2000/svg">
<ellipse cx="14.857" cy="14.7252" rx="14.38" ry="14.382" fill="white" fill-opacity="0.28"/>
<path d="M12.4698 13.0395C13.2641 12.2322 14.1755 11.8285 15.2042 11.8285C16.2458 11.8285 17.1312 12.1931 17.8604 12.9223C18.6677 13.7296 19.0779 14.7777 19.0909 16.0668C19.0909 17.3689 18.6807 18.4236 17.8604 19.2309C17.1052 19.96 16.2133 20.3181 15.1846 20.3051C14.169 20.3051 13.2641 19.9014 12.4698 19.0941V19.5043C12.4698 19.6996 12.3982 19.8689 12.2549 20.0121C12.1247 20.1553 11.9555 20.227 11.7471 20.227C11.5388 20.227 11.363 20.1553 11.2198 20.0121C11.0896 19.8689 11.0245 19.6996 11.0245 19.5043V9.11368C11.0245 8.90534 11.0896 8.73607 11.2198 8.60587C11.363 8.46264 11.5388 8.39102 11.7471 8.39102C11.9555 8.39102 12.1247 8.46264 12.2549 8.60587C12.3982 8.73607 12.4698 8.90534 12.4698 9.11368V13.0395ZM12.4698 17.7465C13.199 18.5538 14.0453 18.9509 15.0089 18.9379C16.2328 18.9379 17.0466 18.3975 17.4503 17.3168C17.5805 16.9522 17.6391 16.5356 17.626 16.0668C17.626 15.1553 17.3852 14.4392 16.9034 13.9184C16.4346 13.4366 15.8031 13.1957 15.0089 13.1957C14.0453 13.1957 13.199 13.5928 12.4698 14.3871V17.7465Z" fill="white"/>
</svg>
