<svg width="30" height="30" viewBox="0 0 30 30" fill="none" xmlns="http://www.w3.org/2000/svg">
<ellipse cx="15.1942" cy="15.0722" rx="14.38" ry="14.382" fill="#0D0D0D"/>
<path d="M18.4084 17.9394C18.5256 18.0696 18.5777 18.2259 18.5647 18.4082C18.5647 18.5905 18.4996 18.7597 18.3694 18.916C18.2522 19.0722 18.0699 19.1504 17.8225 19.1504C17.5881 19.1504 17.4058 19.0592 17.2756 18.8769L14.9905 16.1425L12.8616 18.8379C12.7053 19.0462 12.51 19.1504 12.2756 19.1504C12.0413 19.1504 11.859 19.0853 11.7288 18.955C11.5986 18.8248 11.5334 18.6621 11.5334 18.4668C11.5334 18.2715 11.5855 18.1022 11.6897 17.959L14.1897 15.0488L11.6897 12.0019C11.5725 11.8587 11.5139 11.6959 11.5139 11.5136C11.5269 11.3183 11.5986 11.1556 11.7288 11.0254C11.872 10.8952 12.0543 10.83 12.2756 10.83C12.51 10.83 12.6923 10.9212 12.8225 11.1035L15.0686 13.8769L17.2952 11.1035C17.4254 10.9212 17.6012 10.83 17.8225 10.83C18.0569 10.83 18.2392 10.8952 18.3694 11.0254C18.5126 11.1556 18.5842 11.3118 18.5842 11.4941C18.5842 11.6764 18.5321 11.8327 18.428 11.9629L15.9084 14.9511L18.4084 17.9394Z" fill="white"/>
</svg>
