<svg width="30" height="30" viewBox="0 0 30 30" fill="none" xmlns="http://www.w3.org/2000/svg">
<ellipse cx="14.8143" cy="14.8362" rx="14.38" ry="14.382" fill="#101010"/>
<path d="M17.8333 8.8796C18.0416 8.8796 18.2109 8.95121 18.3411 9.09444C18.4843 9.23767 18.5559 9.38741 18.5559 9.54366C18.5559 9.69991 18.5364 9.8171 18.4973 9.89522L14.1418 20.3835C14.0116 20.722 13.7903 20.8913 13.4778 20.8913C13.2955 20.8913 13.1327 20.8197 12.9895 20.6765C12.8593 20.5332 12.7942 20.39 12.7942 20.2468C12.7942 20.1166 12.8072 20.0059 12.8333 19.9148L13.8684 17.239L10.8606 9.91475C10.8215 9.81059 10.802 9.68689 10.802 9.54366C10.802 9.38741 10.8671 9.23767 10.9973 9.09444C11.1405 8.95121 11.2968 8.8796 11.4661 8.8796C11.8176 8.8796 12.0585 9.02934 12.1887 9.32882L14.6497 15.4421L17.1692 9.34835C17.2994 9.02283 17.5208 8.86658 17.8333 8.8796Z" fill="white"/>
</svg>
