<svg width="29" height="43" viewBox="0 0 29 43" fill="none" xmlns="http://www.w3.org/2000/svg">
<ellipse cx="14.4461" cy="21.6956" rx="14.2349" ry="14.382" fill="black" fill-opacity="0.28"/>
<path d="M11.575 17.9417C12.4734 17.5511 13.4044 17.3623 14.368 17.3753C15.4487 17.3753 16.2885 17.7073 16.8875 18.3714C17.4213 18.9443 17.6948 19.6604 17.7078 20.5198V25.0511C17.7078 25.2464 17.6297 25.4157 17.4734 25.5589C17.3302 25.7021 17.1544 25.7737 16.9461 25.7737C16.7508 25.7737 16.5815 25.7021 16.4383 25.5589C16.295 25.4157 16.2234 25.2464 16.2234 25.0511V24.6409C15.937 24.9404 15.5528 25.2203 15.0711 25.4808C14.5893 25.7282 13.9773 25.8519 13.2351 25.8519C12.493 25.8519 11.8745 25.637 11.3797 25.2073C10.8719 24.7646 10.618 24.1852 10.618 23.469C10.618 22.6748 10.9174 22.0498 11.5164 21.594C12.1674 21.0992 13.0919 20.8584 14.2898 20.8714H16.2234V20.7347C16.2234 20.0185 16.0476 19.5107 15.6961 19.2112C15.3575 18.9117 14.8237 18.762 14.0945 18.762C13.4825 18.762 12.7729 18.8857 11.9656 19.1331C11.8875 19.1591 11.7898 19.1722 11.6726 19.1722C11.5685 19.1722 11.4578 19.1201 11.3406 19.0159C11.2234 18.8987 11.1583 18.7229 11.1453 18.4886C11.1453 18.2412 11.2885 18.0589 11.575 17.9417ZM12.0828 23.2933C12.0828 24.1526 12.6492 24.5758 13.782 24.5628C14.2768 24.5628 14.739 24.4456 15.1687 24.2112C15.6114 23.9638 15.963 23.6904 16.2234 23.3909V22.0433H14.5047C13.7495 22.0433 13.157 22.1409 12.7273 22.3362C12.2976 22.5185 12.0828 22.8375 12.0828 23.2933Z" fill="white"/>
</svg>
