<svg width="29" height="30" viewBox="0 0 29 30" fill="none" xmlns="http://www.w3.org/2000/svg">
<ellipse cx="14.4461" cy="14.6956" rx="14.2349" ry="14.382" fill="black" fill-opacity="0.28"/>
<path d="M11.575 10.9417C12.4734 10.5511 13.4044 10.3623 14.368 10.3753C15.4487 10.3753 16.2885 10.7073 16.8875 11.3714C17.4213 11.9443 17.6948 12.6605 17.7078 13.5198V18.0511C17.7078 18.2464 17.6297 18.4157 17.4734 18.5589C17.3302 18.7021 17.1544 18.7737 16.9461 18.7737C16.7508 18.7737 16.5815 18.7021 16.4383 18.5589C16.295 18.4157 16.2234 18.2464 16.2234 18.0511V17.6409C15.937 17.9404 15.5528 18.2203 15.0711 18.4808C14.5893 18.7282 13.9773 18.8519 13.2351 18.8519C12.493 18.8519 11.8745 18.637 11.3797 18.2073C10.8719 17.7646 10.618 17.1852 10.618 16.469C10.618 15.6748 10.9174 15.0498 11.5164 14.594C12.1674 14.0993 13.0919 13.8584 14.2898 13.8714H16.2234V13.7347C16.2234 13.0185 16.0476 12.5107 15.6961 12.2112C15.3575 11.9118 14.8237 11.762 14.0945 11.762C13.4825 11.762 12.7729 11.8857 11.9656 12.1331C11.8875 12.1591 11.7898 12.1722 11.6726 12.1722C11.5685 12.1722 11.4578 12.1201 11.3406 12.0159C11.2234 11.8987 11.1583 11.723 11.1453 11.4886C11.1453 11.2412 11.2885 11.0589 11.575 10.9417ZM12.0828 16.2933C12.0828 17.1526 12.6492 17.5758 13.782 17.5628C14.2768 17.5628 14.739 17.4456 15.1687 17.2112C15.6114 16.9638 15.963 16.6904 16.2234 16.3909V15.0433H14.5047C13.7495 15.0433 13.157 15.1409 12.7273 15.3362C12.2976 15.5185 12.0828 15.8375 12.0828 16.2933Z" fill="white"/>
</svg>
