<svg width="29" height="42" viewBox="0 0 29 42" fill="none" xmlns="http://www.w3.org/2000/svg">
<ellipse cx="14.551" cy="19.5846" rx="14.2349" ry="14.382" fill="black" fill-opacity="0.28"/>
<path d="M12.309 17.8988C13.1032 17.0916 14.0147 16.6879 15.0433 16.6879C16.085 16.6879 16.9704 17.0525 17.6996 17.7817C18.5069 18.589 18.917 19.6371 18.9301 20.9262C18.9301 22.2283 18.5199 23.283 17.6996 24.0903C16.9444 24.8194 16.0524 25.1775 15.0238 25.1645C14.0082 25.1645 13.1032 24.7608 12.309 23.9535V24.3637C12.309 24.559 12.2373 24.7283 12.0941 24.8715C11.9639 25.0147 11.7946 25.0863 11.5863 25.0863C11.378 25.0863 11.2022 25.0147 11.059 24.8715C10.9288 24.7283 10.8636 24.559 10.8636 24.3637V13.9731C10.8636 13.7647 10.9288 13.5955 11.059 13.4653C11.2022 13.322 11.378 13.2504 11.5863 13.2504C11.7946 13.2504 11.9639 13.322 12.0941 13.4653C12.2373 13.5955 12.309 13.7647 12.309 13.9731V17.8988ZM12.309 22.6059C13.0381 23.4132 13.8845 23.8103 14.848 23.7973C16.072 23.7973 16.8858 23.2569 17.2894 22.1762C17.4196 21.8116 17.4782 21.3949 17.4652 20.9262C17.4652 20.0147 17.2243 19.2986 16.7426 18.7778C16.2738 18.296 15.6423 18.0551 14.848 18.0551C13.8845 18.0551 13.0381 18.4522 12.309 19.2465V22.6059Z" fill="white"/>
</svg>
