<svg width="29" height="29" viewBox="0 0 29 29" fill="none" xmlns="http://www.w3.org/2000/svg">
<ellipse cx="14.551" cy="14.5846" rx="14.2349" ry="14.382" fill="black" fill-opacity="0.28"/>
<path d="M12.309 12.8989C13.1032 12.0916 14.0147 11.6879 15.0433 11.6879C16.085 11.6879 16.9704 12.0525 17.6996 12.7817C18.5069 13.589 18.917 14.6371 18.9301 15.9262C18.9301 17.2283 18.5199 18.283 17.6996 19.0903C16.9444 19.8194 16.0524 20.1775 15.0238 20.1645C14.0082 20.1645 13.1032 19.7608 12.309 18.9536V19.3637C12.309 19.559 12.2373 19.7283 12.0941 19.8715C11.9639 20.0148 11.7946 20.0864 11.5863 20.0864C11.378 20.0864 11.2022 20.0148 11.059 19.8715C10.9288 19.7283 10.8636 19.559 10.8636 19.3637V8.97308C10.8636 8.76475 10.9288 8.59548 11.059 8.46527C11.2022 8.32204 11.378 8.25043 11.5863 8.25043C11.7946 8.25043 11.9639 8.32204 12.0941 8.46527C12.2373 8.59548 12.309 8.76475 12.309 8.97308V12.8989ZM12.309 17.6059C13.0381 18.4132 13.8845 18.8103 14.848 18.7973C16.072 18.7973 16.8858 18.2569 17.2894 17.1762C17.4196 16.8116 17.4782 16.395 17.4652 15.9262C17.4652 15.0148 17.2243 14.2986 16.7426 13.7778C16.2738 13.296 15.6423 13.0551 14.848 13.0551C13.8845 13.0551 13.0381 13.4523 12.309 14.2465V17.6059Z" fill="white"/>
</svg>
