<svg width="30" height="43" viewBox="0 0 30 43" fill="none" xmlns="http://www.w3.org/2000/svg">
<ellipse cx="14.8882" cy="21.9316" rx="14.2349" ry="14.382" fill="#C3C3C3"/>
<path d="M18.2476 24.7988C18.3648 24.929 18.4169 25.0853 18.4038 25.2676C18.4038 25.4499 18.3387 25.6191 18.2085 25.7754C18.0913 25.9316 17.909 26.0098 17.6617 26.0098C17.4273 26.0098 17.245 25.9186 17.1148 25.7363L14.8296 23.0019L12.7007 25.6973C12.5445 25.9056 12.3492 26.0098 12.1148 26.0098C11.8804 26.0098 11.6981 25.9446 11.5679 25.8144C11.4377 25.6842 11.3726 25.5215 11.3726 25.3262C11.3726 25.1308 11.4247 24.9616 11.5288 24.8183L14.0288 21.9082L11.5288 18.8613C11.4117 18.7181 11.3531 18.5553 11.3531 18.373C11.3661 18.1777 11.4377 18.015 11.5679 17.8848C11.7111 17.7545 11.8934 17.6894 12.1148 17.6894C12.3492 17.6894 12.5314 17.7806 12.6617 17.9629L14.9077 20.7363L17.1343 17.9629C17.2645 17.7806 17.4403 17.6894 17.6617 17.6894C17.896 17.6894 18.0783 17.7545 18.2085 17.8848C18.3518 18.015 18.4234 18.1712 18.4234 18.3535C18.4234 18.5358 18.3713 18.692 18.2671 18.8223L15.7476 21.8105L18.2476 24.7988Z" fill="white"/>
</svg>
