<svg width="30" height="30" viewBox="0 0 30 30" fill="none" xmlns="http://www.w3.org/2000/svg">
<ellipse cx="14.8882" cy="14.9316" rx="14.2349" ry="14.382" fill="#C3C3C3"/>
<path d="M18.2476 17.7988C18.3648 17.929 18.4169 18.0853 18.4038 18.2676C18.4038 18.4499 18.3387 18.6191 18.2085 18.7754C18.0913 18.9316 17.909 19.0098 17.6617 19.0098C17.4273 19.0098 17.245 18.9186 17.1148 18.7363L14.8296 16.0019L12.7007 18.6973C12.5445 18.9056 12.3492 19.0098 12.1148 19.0098C11.8804 19.0098 11.6981 18.9446 11.5679 18.8144C11.4377 18.6842 11.3726 18.5215 11.3726 18.3262C11.3726 18.1308 11.4247 17.9616 11.5288 17.8183L14.0288 14.9082L11.5288 11.8613C11.4117 11.7181 11.3531 11.5553 11.3531 11.373C11.3661 11.1777 11.4377 11.015 11.5679 10.8848C11.7111 10.7545 11.8934 10.6894 12.1148 10.6894C12.3492 10.6894 12.5314 10.7806 12.6617 10.9629L14.9077 13.7363L17.1343 10.9629C17.2645 10.7806 17.4403 10.6894 17.6617 10.6894C17.896 10.6894 18.0783 10.7545 18.2085 10.8848C18.3518 11.015 18.4234 11.1712 18.4234 11.3535C18.4234 11.5358 18.3713 11.692 18.2671 11.8223L15.7476 14.8105L18.2476 17.7988Z" fill="white"/>
</svg>
