<svg width="29" height="30" viewBox="0 0 29 30" fill="none" xmlns="http://www.w3.org/2000/svg">
<ellipse cx="14.5084" cy="14.6956" rx="14.2349" ry="14.382" fill="#C3C3C3"/>
<path d="M17.6724 8.739C17.8807 8.739 18.05 8.81062 18.1802 8.95385C18.3234 9.09707 18.3951 9.24681 18.3951 9.40306C18.3951 9.55931 18.3755 9.6765 18.3365 9.75463L13.981 20.2429C13.8508 20.5815 13.6294 20.7507 13.3169 20.7507C13.1346 20.7507 12.9719 20.6791 12.8286 20.5359C12.6984 20.3926 12.6333 20.2494 12.6333 20.1062C12.6333 19.976 12.6464 19.8653 12.6724 19.7742L13.7076 17.0984L10.6997 9.77416C10.6607 9.66999 10.6411 9.54629 10.6411 9.40306C10.6411 9.24681 10.7062 9.09707 10.8365 8.95385C10.9797 8.81062 11.1359 8.739 11.3052 8.739C11.6568 8.739 11.8977 8.88874 12.0279 9.18822L14.4888 15.3015L17.0083 9.20775C17.1385 8.88223 17.3599 8.72598 17.6724 8.739Z" fill="white"/>
</svg>
