<svg width="29" height="43" viewBox="0 0 29 43" fill="none" xmlns="http://www.w3.org/2000/svg">
<ellipse cx="14.5084" cy="23.6956" rx="14.2349" ry="14.382" fill="#C3C3C3"/>
<path d="M17.6724 17.739C17.8807 17.739 18.05 17.8106 18.1802 17.9538C18.3234 18.0971 18.3951 18.2468 18.3951 18.4031C18.3951 18.5593 18.3755 18.6765 18.3365 18.7546L13.981 29.2429C13.8508 29.5814 13.6294 29.7507 13.3169 29.7507C13.1346 29.7507 12.9719 29.6791 12.8286 29.5359C12.6984 29.3926 12.6333 29.2494 12.6333 29.1062C12.6333 28.976 12.6464 28.8653 12.6724 28.7742L13.7076 26.0984L10.6997 18.7742C10.6607 18.67 10.6411 18.5463 10.6411 18.4031C10.6411 18.2468 10.7062 18.0971 10.8365 17.9538C10.9797 17.8106 11.1359 17.739 11.3052 17.739C11.6568 17.739 11.8977 17.8887 12.0279 18.1882L14.4888 24.3015L17.0083 18.2077C17.1385 17.8822 17.3599 17.726 17.6724 17.739Z" fill="white"/>
</svg>
